
<!-- Generator: visioncortex VTracer 0.6.4 -->
<svg version="1.1" xmlns="http://www.w3.org/2000/svg" viewBox="0 0 512 512" preserveAspectRatio="xMidYMid meet">
<path d="M0 0 C168.96 0 337.92 0 512 0 C512 168.96 512 337.92 512 512 C343.04 512 174.08 512 0 512 C0 343.04 0 174.08 0 0 Z " fill="#FEFEFF" transform="translate(0,0)"/>
<path d="M0 0 C36.63 0 73.26 0 111 0 C111 36.96 111 73.92 111 112 C103.125 105.25 103.125 105.25 99.992 102.106 C99.292 101.406 98.592 100.705 97.871 99.984 C96.776 98.882 96.776 98.882 95.66 97.758 C94.51 96.605 94.51 96.605 93.336 95.429 C90.909 92.997 88.486 90.561 86.062 88.125 C84.408 86.466 82.754 84.807 81.1 83.148 C77.064 79.102 73.031 75.052 69 71 C66.174 72.287 64.118 73.632 61.926 75.826 C61.346 76.402 60.766 76.979 60.168 77.572 C59.543 78.202 58.919 78.832 58.275 79.482 C57.608 80.147 56.941 80.812 56.254 81.498 C54.05 83.698 51.853 85.905 49.656 88.113 C48.125 89.646 46.593 91.178 45.061 92.71 C41.85 95.922 38.643 99.138 35.438 102.356 C31.334 106.477 27.224 110.591 23.111 114.704 C19.947 117.868 16.785 121.035 13.624 124.203 C12.11 125.721 10.595 127.238 9.079 128.754 C6.958 130.877 4.841 133.003 2.725 135.13 C2.1 135.754 1.476 136.378 0.832 137.021 C-2.332 140.209 -5.239 143.448 -8 147 C-9.144 148.067 -10.321 149.102 -11.527 150.098 C-16.616 154.453 -21.323 159.173 -26.046 163.915 C-27.56 165.435 -29.079 166.949 -30.6 168.463 C-35.428 173.288 -40.16 178.154 -44.578 183.364 C-45.282 184.174 -45.282 184.174 -46 185 C-46.474 185.587 -46.948 186.174 -47.436 186.779 C-47.952 187.182 -48.468 187.585 -49 188 C-52.272 187.578 -53.907 186.46 -56.188 184.14 C-56.793 183.531 -57.399 182.922 -58.022 182.295 C-59.001 181.288 -59.001 181.288 -60 180.261 C-60.696 179.557 -61.393 178.853 -62.11 178.128 C-63.622 176.598 -65.13 175.065 -66.635 173.53 C-69.014 171.102 -71.404 168.686 -73.797 166.272 C-80.598 159.406 -87.381 152.522 -94.156 145.631 C-98.3 141.418 -102.456 137.217 -106.619 133.023 C-108.206 131.42 -109.788 129.811 -111.365 128.198 C-113.566 125.947 -115.781 123.712 -118 121.48 C-118.653 120.805 -119.305 120.129 -119.978 119.434 C-120.583 118.831 -121.189 118.228 -121.812 117.606 C-122.596 116.811 -122.596 116.811 -123.395 115.999 C-124.955 114.821 -124.955 114.821 -126.906 115.066 C-129.765 116.341 -131.484 118.116 -133.695 120.334 C-134.152 120.788 -134.608 121.243 -135.079 121.71 C-136.608 123.234 -138.125 124.769 -139.644 126.303 C-140.737 127.397 -141.831 128.491 -142.926 129.584 C-145.897 132.555 -148.859 135.534 -151.82 138.516 C-154.915 141.629 -158.018 144.734 -161.121 147.841 C-166.995 153.724 -172.862 159.615 -178.726 165.509 C-185.402 172.219 -192.086 178.92 -198.771 185.62 C-212.524 199.404 -226.265 213.199 -240 227 C-241.113 226.053 -242.224 225.106 -243.336 224.157 C-243.955 223.63 -244.574 223.102 -245.212 222.558 C-247.595 220.481 -249.831 218.281 -252.059 216.039 C-252.938 215.156 -253.818 214.273 -254.725 213.363 C-256.067 212.008 -256.067 212.008 -257.438 210.625 C-258.36 209.698 -259.282 208.771 -260.232 207.816 C-262.491 205.547 -264.746 203.274 -267 201 C-265.391 196.99 -262.574 194.3 -259.558 191.318 C-258.997 190.755 -258.436 190.192 -257.858 189.612 C-255.976 187.727 -254.086 185.848 -252.197 183.97 C-250.846 182.62 -249.496 181.269 -248.147 179.919 C-244.48 176.251 -240.807 172.59 -237.133 168.93 C-233.295 165.105 -229.463 161.274 -225.63 157.443 C-218.37 150.19 -211.105 142.941 -203.839 135.695 C-195.566 127.445 -187.3 119.189 -179.034 110.933 C-162.029 93.949 -145.017 76.972 -128 60 C-125.097 61.314 -123.031 62.721 -120.786 64.974 C-120.174 65.582 -119.563 66.191 -118.933 66.818 C-117.945 67.817 -117.945 67.817 -116.937 68.836 C-116.234 69.539 -115.531 70.242 -114.807 70.965 C-112.486 73.287 -110.173 75.616 -107.859 77.945 C-106.251 79.557 -104.643 81.169 -103.034 82.78 C-98.801 87.02 -94.574 91.266 -90.349 95.514 C-86.036 99.847 -81.717 104.175 -77.398 108.504 C-68.927 116.997 -60.461 125.497 -52 134 C-48.804 132.588 -46.645 130.901 -44.171 128.446 C-43.424 127.708 -42.677 126.971 -41.907 126.211 C-41.097 125.402 -40.287 124.592 -39.452 123.758 C-38.591 122.906 -37.731 122.054 -36.844 121.176 C-34.489 118.841 -32.139 116.502 -29.792 114.159 C-28.325 112.696 -26.858 111.235 -25.39 109.774 C-20.27 104.678 -15.155 99.577 -10.046 94.471 C-5.279 89.708 -0.499 84.959 4.286 80.215 C8.394 76.142 12.491 72.06 16.582 67.97 C19.026 65.527 21.473 63.088 23.931 60.659 C26.667 57.953 29.384 55.228 32.099 52.5 C32.919 51.695 33.739 50.89 34.584 50.06 C35.318 49.317 36.051 48.574 36.806 47.808 C37.451 47.166 38.096 46.523 38.76 45.861 C40.23 44.076 40.23 44.076 39.809 41.877 C38.679 39.256 37.068 38.016 34.883 36.184 C28.254 30.42 22.065 24.251 15.855 18.041 C13.849 16.037 11.835 14.041 9.82 12.045 C8.544 10.771 7.268 9.497 5.992 8.223 C5.088 7.329 5.088 7.329 4.165 6.417 C0 2.229 0 2.229 0 0 Z " fill="#2049FF" transform="translate(334,143)"/>
</svg>
